<svg width="9" height="8" viewBox="0 0 9 8" fill="none" xmlns="http://www.w3.org/2000/svg">
<path d="M3.76846 4.04C4.06952 3.3643 4.6208 2.83848 5.30108 2.57819C5.98136 2.3179 6.73492 2.34445 7.39605 2.652C8.0571 2.95973 8.57151 3.52323 8.82616 4.21859C9.0808 4.91394 9.05483 5.68421 8.75395 6.36C8.53698 6.84962 8.18635 7.26482 7.74417 7.55573C7.30199 7.84665 6.78706 8.00091 6.26121 8C5.20463 8 4.23805 7.376 3.78412 6.4H0V5.6C0.0234795 5.144 0.328713 4.772 0.915701 4.472C1.50269 4.172 2.23838 4.016 3.1306 4C3.35366 4 3.56497 4.02 3.76846 4.04ZM3.1306 0C3.56889 0.012 3.93673 0.168 4.23023 0.468C4.52372 0.768 4.66851 1.144 4.66851 1.6C4.66851 2.056 4.52372 2.432 4.23023 2.732C3.93673 3.032 3.56889 3.18 3.1306 3.18C2.69232 3.18 2.32447 3.032 2.03098 2.732C1.73748 2.432 1.59269 2.056 1.59269 1.6C1.59269 1.144 1.73748 0.768 2.03098 0.468C2.32447 0.168 2.69232 0.012 3.1306 0ZM6.26121 7.2C6.78014 7.2 7.27781 6.98928 7.64475 6.61421C8.01169 6.23914 8.21783 5.73043 8.21783 5.2C8.21783 4.66956 8.01169 4.16086 7.64475 3.78578C7.27781 3.41071 6.78014 3.2 6.26121 3.2C5.74228 3.2 5.2446 3.41071 4.87766 3.78578C4.51072 4.16086 4.30458 4.66956 4.30458 5.2C4.30458 5.73043 4.51072 6.23914 4.87766 6.61421C5.2446 6.98928 5.74228 7.2 6.26121 7.2ZM5.86988 4H6.45687V5.128L7.4117 5.692L7.11821 6.212L5.86988 5.476V4Z" fill="#4B8AFF"/>
</svg>
